# xmcd
#
# Track frame offsets:
#	182
#	9797
#	21440
#	31590
#	43322
#	55440
#	64302
#	75682
#	86810
#	96947
#	109160
#	124647
#	135417
#	145342
#	157212
#
# Disc length: 2307 seconds
#
# Revision: 2
# Processed by: cddbd v1.5.1PL0 Copyright (c) Steve Scherf et al.
# Submitted via: audiograbber 1.83.01
#
DISCID=cc09010f
DTITLE=Various Artist - Prom Night - Greatest Hits of the 50's and 60's Disk 3
DYEAR=1900
DGENRE=Oldies
TTITLE0=The Diamonds - Little Darlin'
TTITLE1=Della Reese - Don't You Know
TTITLE2=Carl Perkins - Blue Suede Shoes
TTITLE3=Jimmy Dorsey - So Rare
TTITLE4=Neil Sedaka - Happy Birthday, Sweet Sixteen
TTITLE5=Connie Stevens - Sixteen Reasons
TTITLE6=Johnny Tillotson - Poetry In Motion
TTITLE7=Dream Lovers - When We Get Married
TTITLE8=The Danleers - One Summer Night
TTITLE9=Curtis Lee - Pretty Little Angel Eyes
TTITLE10=Litle Caeser and the Romans - Those Oldies But Goodies
TTITLE11=Santo and Johnny - Sleepwalk
TTITLE12=Ernie Maresca - Shout! Shout! Knock Yourself Out
TTITLE13=Frankie Avalon - Why
TTITLE14=Brenda Lee - You Can Depend On Me
EXTD=ripped by teacher dan
EXTT0=
EXTT1=
EXTT2=
EXTT3=
EXTT4=
EXTT5=
EXTT6=
EXTT7=
EXTT8=
EXTT9=
EXTT10=
EXTT11=
EXTT12=
EXTT13=
EXTT14=
PLAYORDER=
